<svg width="72" height="62" viewBox="0 0 72 62" fill="none" xmlns="http://www.w3.org/2000/svg">
    <path
        d="M66.1714 27.7429C65.9546 26.613 64.9663 25.7959 63.8158 25.7953H61.4986L61.3282 24.7741C61.1582 23.7484 60.3501 22.947 59.323 22.7857C59.095 22.7497 58.8646 22.7257 58.6378 22.6945C59.0308 20.8599 58.7043 18.9445 57.7258 17.3437C58.2428 16.0026 58.1463 14.5024 57.4618 13.2387C56.7773 11.9749 55.5735 11.0745 54.1678 10.7749C53.2691 5.96526 49.085 2.46914 44.1922 2.43967C44.0722 2.43967 43.9654 2.45527 43.8514 2.45887C43.0696 1.23109 41.7807 0.416233 40.3363 0.236578C38.8918 0.0569228 37.4426 0.531214 36.3838 1.53007C35.0501 0.663093 33.4938 0.200878 31.903 0.199274C29.3399 0.209763 26.9242 1.39944 25.3534 3.42487C23.6093 2.91627 21.7285 3.22856 20.2422 4.27353C18.756 5.31849 17.8258 6.9827 17.7142 8.79607C15.8822 9.56616 14.6902 11.3592 14.689 13.3465C14.6928 13.691 14.733 14.0341 14.809 14.3701C13.1889 16.8125 12.7655 19.8584 13.6582 22.6501C13.3366 22.6945 13.0078 22.7341 12.6982 22.7797C11.6658 22.9354 10.8505 23.7372 10.6774 24.7669L10.507 25.7917H8.18382C7.03524 25.7925 6.04822 26.6069 5.82942 27.7345L0.57462 54.7129C0.369402 55.7694 0.647688 56.8624 1.3332 57.6922C2.0187 58.5219 3.03952 59.0014 4.11582 58.9993H29.1406C30.1342 60.6385 33.1534 61.3993 35.9998 61.3993C38.8162 61.3993 41.8066 60.6565 42.829 58.9993H67.8838C68.9599 59.0014 69.9804 58.522 70.6659 57.6925C71.3514 56.8631 71.6298 55.7705 71.425 54.7141L66.1714 27.7429ZM18.3178 15.5185C17.3435 14.9326 16.8785 13.7697 17.1803 12.6736C17.4822 11.5775 18.4769 10.8165 19.6138 10.8121C20.4095 10.8097 21.1583 11.1879 21.6286 11.8297C21.8841 12.1739 22.3039 12.3557 22.7298 12.3066C23.1557 12.2574 23.523 11.9848 23.6934 11.5914C23.8638 11.198 23.8113 10.7435 23.5558 10.3993C22.741 9.31021 21.5061 8.61354 20.1526 8.47927C20.5104 6.7987 21.9924 5.5956 23.7106 5.59087C23.857 5.5983 24.0029 5.61433 24.1474 5.63887C24.0509 5.88489 23.9668 6.13561 23.8954 6.39007C23.7461 7.02529 24.1317 7.66343 24.7635 7.8266C25.3953 7.98977 26.0417 7.61817 26.2186 6.99007C26.3551 6.46266 26.5647 5.95695 26.8414 5.48767C27.9059 3.7044 29.8262 2.60855 31.903 2.59927C33.0333 2.60428 34.1377 2.93782 35.0818 3.55927C34.902 4.0646 34.8067 4.59614 34.7998 5.13247C34.7998 5.79522 35.3371 6.33247 35.9998 6.33247C36.6626 6.33247 37.1998 5.79522 37.1998 5.13247C37.1998 3.7384 38.3299 2.60827 39.724 2.60827C41.1181 2.60827 42.2482 3.7384 42.2482 5.13247C42.2482 5.79522 42.7855 6.33247 43.4482 6.33247C44.111 6.33247 44.6482 5.79522 44.6482 5.13247C44.6482 5.04007 44.6254 4.95247 44.6206 4.86007C48.0566 5.07207 50.946 7.5145 51.727 10.8673C51.1673 11.0302 50.6413 11.2924 50.1742 11.6413C49.8312 11.8985 49.6516 12.3192 49.7028 12.7448C49.7541 13.1705 50.0286 13.5364 50.4228 13.7048C50.8171 13.8732 51.2712 13.8185 51.6142 13.5613C52.5732 12.8513 53.8978 12.9079 54.7926 13.6971C55.6875 14.4863 55.9092 15.7935 55.3246 16.8337C55.0634 17.293 54.6664 17.6602 54.1882 17.8849C53.6867 18.1277 53.4183 18.6838 53.5402 19.2275C53.6621 19.7712 54.1423 20.1594 54.6994 20.1649C54.8754 20.1651 55.0492 20.1262 55.2082 20.0509C55.5262 19.8968 55.8268 19.7089 56.1046 19.4905C56.7249 21.254 56.3359 23.2153 55.0894 24.6085L55.0606 24.6385C53.4973 26.332 51.0034 26.7897 48.9406 25.7617C48.7386 25.655 48.5445 25.5338 48.3598 25.3993C49.2437 24.1601 49.3658 22.5324 48.6766 21.1753C48.4837 20.7922 48.1011 20.5412 47.6729 20.5167C47.2447 20.4923 46.8359 20.6981 46.6007 21.0567C46.3654 21.4153 46.3393 21.8722 46.5322 22.2553C46.9268 23.0484 46.6807 24.0109 45.9538 24.5173C45.527 24.8015 44.9996 24.8913 44.5028 24.7646C44.0059 24.6379 43.586 24.3064 43.3474 23.8525C43.1556 23.469 42.7737 23.217 42.3457 23.1914C41.9176 23.1658 41.5084 23.3705 41.2723 23.7284C41.0361 24.0863 41.0088 24.543 41.2006 24.9265C41.9044 26.3471 43.3544 27.2443 44.9398 27.2401C45.456 27.2366 45.9668 27.136 46.4458 26.9437C46.8744 27.3189 47.3466 27.6412 47.8522 27.9037C49.5625 28.7902 51.5512 28.974 53.395 28.4161C52.2091 30.0353 50.4344 31.1235 48.4534 31.4461C47.8371 31.5464 47.4008 32.1026 47.45 32.725C47.4991 33.3475 48.0174 33.8282 48.6418 33.8305C48.7057 33.8305 48.7695 33.8256 48.8326 33.8161C49.5633 33.6896 50.2774 33.4811 50.9614 33.1945C51.3311 33.8481 51.6311 34.5386 51.8566 35.2549C51.8979 35.3799 51.919 35.5108 51.919 35.6425C51.9187 36.1611 51.609 36.6296 51.1318 36.8329C50.5798 37.0464 49.9532 36.8779 49.5826 36.4165C48.6533 35.3251 47.4363 34.5165 46.0702 34.0825C43.477 33.2137 42.4762 32.4373 42.0514 31.5925C42.6741 31.5148 43.2893 31.3864 43.891 31.2085C44.3009 31.0824 44.6124 30.7473 44.7081 30.3293C44.8039 29.9114 44.6694 29.4741 44.3553 29.1821C44.0412 28.8902 43.5953 28.788 43.1854 28.9141C42.5121 29.1207 41.817 29.2483 41.1142 29.2945C39.7602 29.4003 38.3999 29.1951 37.1374 28.6945C36.6634 28.5096 36.1243 28.6438 35.7922 29.0293C34.0451 31.0362 31.0548 31.3773 28.9005 29.8154C26.7463 28.2535 26.1408 25.3054 27.505 23.0209C27.726 22.652 27.7334 22.1932 27.5244 21.8173C27.3155 21.4415 26.9218 21.2057 26.4918 21.1987C26.0619 21.1918 25.6608 21.4148 25.4398 21.7837C25.1535 22.2709 24.9233 22.789 24.7534 23.3281C23.8084 23.2784 23.0633 22.5054 23.0482 21.5593V21.5293C23.0476 21.2126 22.9205 20.9094 22.6951 20.6869C22.4697 20.4645 22.1648 20.3414 21.8482 20.3449C21.1826 20.3515 20.6469 20.8936 20.6482 21.5593C20.6536 23.6874 22.2584 25.4712 24.3742 25.7005C24.3785 26.1027 24.415 26.504 24.4834 26.9005C21.8041 27.4802 19.0251 26.5171 17.2791 24.4037C15.5331 22.2903 15.1117 19.3795 16.1866 16.8577C16.4551 17.1293 16.7548 17.3682 17.0794 17.5693C17.6463 17.9013 18.3748 17.7158 18.7138 17.1531C19.0529 16.5903 18.8763 15.8596 18.3178 15.5137V15.5185ZM13.0378 25.1581C13.591 25.0765 14.1622 25.0045 14.7298 24.9301C16.9485 28.4756 21.192 30.1972 25.2538 29.1997C26.3452 31.2711 28.3395 32.7156 30.6479 33.1069C32.9563 33.4981 35.3152 32.7914 37.0282 31.1953C37.8437 31.4385 38.6836 31.5906 39.5326 31.6489C40.1122 33.8473 41.7874 35.1793 45.307 36.3589C46.2558 36.6563 47.1023 37.2138 47.7502 37.9681C48.4706 38.8247 49.5302 39.3225 50.6494 39.3301C51.1389 39.3299 51.6233 39.2312 52.0738 39.0397C53.4341 38.4583 54.3165 37.1217 54.3166 35.6425C54.3177 35.2567 54.2561 34.8733 54.1342 34.5073C53.8644 33.6594 53.5089 32.8412 53.0734 32.0653C55.114 30.5984 56.5355 28.4244 57.061 25.9669C57.3166 25.6632 57.5477 25.3398 57.7522 24.9997C58.1542 25.0513 58.5562 25.0969 58.9606 25.1641L63.2926 51.2209C54.8248 48.3933 45.6676 48.3933 37.1998 51.2209V36.1993C37.1998 35.5365 36.6626 34.9993 35.9998 34.9993C35.3371 34.9993 34.7998 35.5365 34.7998 36.1993V51.2257C26.333 48.3955 17.1759 48.3922 8.70702 51.2161L13.0378 25.1581ZM3.18102 56.1577C2.95427 55.8838 2.86184 55.5229 2.92902 55.1737L8.18382 28.1953H10.1038L6.33822 50.8261C6.20577 51.6498 6.50908 52.4834 7.1399 53.0294C7.77072 53.5754 8.6392 53.7561 9.43542 53.5069C15.8326 51.4343 22.648 51.0019 29.2558 52.2493L28.8982 56.5993H4.11582C3.7538 56.5995 3.41074 56.4375 3.18102 56.1577ZM35.9998 58.9993C33.109 58.9993 31.4506 58.1449 31.207 57.7645L31.6198 52.7845C32.9393 53.113 34.2306 53.546 35.4814 54.0793C35.6432 54.1572 35.8203 54.1982 35.9998 54.1993C36.1799 54.199 36.3575 54.158 36.5194 54.0793C37.7695 53.5428 39.0604 53.1071 40.3798 52.7761L40.7926 57.7633C40.549 58.1449 38.8906 58.9993 35.9998 58.9993ZM68.8186 56.1577C68.5889 56.4375 68.2458 56.5995 67.8838 56.5993H43.105L42.745 52.2409C49.3565 50.996 56.1748 51.4322 62.5738 53.5093C63.3699 53.7552 64.2365 53.572 64.8649 53.0249C65.4933 52.4779 65.7941 51.6448 65.6602 50.8225L61.8982 28.1965H63.8182L69.0742 55.1725C69.1408 55.5226 69.047 55.8841 68.8186 56.1577Z"
        fill="#FF7B52" />
</svg>