<svg width="73" height="72" viewBox="0 0 73 72" fill="none" xmlns="http://www.w3.org/2000/svg">
    <path
        d="M71.3 28.8H50.9V25.2C50.9 24.816 50.7163 24.4551 50.4056 24.2292L37.7 14.9892V10.8H50.9C51.5627 10.8 52.1 10.2627 52.1 9.6V2.4C52.1 1.7373 51.5627 1.2 50.9 1.2H37.7C37.7 0.5373 37.1627 0 36.5 0C35.8373 0 35.3 0.5373 35.3 1.2V14.9892L22.5944 24.2292C22.2838 24.4551 22.1 24.816 22.1 25.2V28.8H1.7C1.0373 28.8 0.5 29.3373 0.5 30V70.8C0.5 71.4627 1.0373 72 1.7 72H71.3C71.9627 72 72.5 71.4627 72.5 70.8V30C72.5 29.3373 71.9627 28.8 71.3 28.8ZM37.7 3.6H49.7V8.4H37.7V3.6ZM22.1 69.6H2.9V31.2H22.1V69.6ZM41.3 69.6H31.7V57.6H41.3V69.6ZM48.5 69.6H43.7V56.4C43.7 55.7373 43.1627 55.2 42.5 55.2H30.5C29.8373 55.2 29.3 55.7373 29.3 56.4V69.6H24.5V25.8108L36.5 17.0832L48.5 25.8108V69.6ZM70.1 69.6H50.9V31.2H70.1V69.6Z"
        fill="#8D5CF6" />
</svg>