<svg width="20" height="20" viewBox="0 0 20 20" fill="none" xmlns="http://www.w3.org/2000/svg">
    <path
        d="M19.0966 7.41866C19.039 7.24885 18.9329 7.09964 18.7914 6.98945C18.6499 6.87926 18.4792 6.81292 18.3005 6.79861L13.0713 6.3831L10.8085 1.37409C10.7364 1.21276 10.6192 1.07573 10.471 0.979546C10.3228 0.883361 10.1499 0.832128 9.9732 0.832031C9.79651 0.831934 9.62356 0.882977 9.47523 0.978999C9.32691 1.07502 9.20954 1.21192 9.1373 1.37317L6.87449 6.3831L1.64533 6.79861C1.46964 6.81253 1.30168 6.87677 1.16154 6.98364C1.02141 7.09052 0.915026 7.23551 0.85513 7.40126C0.795235 7.56701 0.784361 7.74651 0.823808 7.91828C0.863256 8.09005 0.951355 8.24682 1.07757 8.36983L4.94187 12.1369L3.57519 18.0549C3.5337 18.234 3.547 18.4215 3.61337 18.593C3.67974 18.7645 3.79612 18.9121 3.94741 19.0166C4.0987 19.1211 4.2779 19.1777 4.46178 19.1791C4.64565 19.1805 4.8257 19.1266 4.97856 19.0244L9.9729 15.6949L14.9672 19.0244C15.1235 19.1282 15.3077 19.1816 15.4952 19.1774C15.6827 19.1733 15.8645 19.1119 16.016 19.0014C16.1675 18.8909 16.2816 18.7367 16.3429 18.5595C16.4041 18.3822 16.4097 18.1904 16.3587 18.01L14.6811 12.1397L18.8416 8.39551C19.1141 8.1497 19.214 7.76629 19.0966 7.41866Z"
        fill="#F3CD03" />
</svg>